<?xml version="1.0" encoding="utf-8"?>
<!-- Generator: Adobe Illustrator 25.0.1, SVG Export Plug-In . SVG Version: 6.00 Build 0)  -->
<svg version="1.1" id="圖層_1" xmlns="http://www.w3.org/2000/svg" xmlns:xlink="http://www.w3.org/1999/xlink" x="0px" y="0px"
	 viewBox="0 0 20 19" style="enable-background:new 0 0 20 19;" xml:space="preserve">
<path d="M17.2,0.5H2.8C1.2,0.5,0,1.7,0,3.3v12.5c0,1.5,1.2,2.8,2.8,2.8h14.5c1.5,0,2.8-1.2,2.8-2.8V3.3C20,1.7,18.8,0.5,17.2,0.5z
	 M2.8,2h14.5c0.7,0,1.2,0.6,1.2,1.2V4l-8.1,5.4c-0.3,0.2-0.6,0.2-0.9,0L1.5,4V3.2C1.5,2.6,2.1,2,2.8,2z M17.2,17H2.8
	c-0.7,0-1.2-0.6-1.2-1.2v-10l7.2,4.8c0.4,0.3,0.8,0.4,1.3,0.4c0.4,0,0.9-0.1,1.3-0.4l7.2-4.8v10C18.5,16.4,17.9,17,17.2,17L17.2,17z
	"/>
</svg>
