<?xml version="1.0" encoding="utf-8"?>
<!-- Generator: Adobe Illustrator 25.0.1, SVG Export Plug-In . SVG Version: 6.00 Build 0)  -->
<svg version="1.1" id="圖層_1" xmlns="http://www.w3.org/2000/svg" xmlns:xlink="http://www.w3.org/1999/xlink" x="0px" y="0px"
	 viewBox="0 0 24 24" style="enable-background:new 0 0 24 24;" xml:space="preserve">
<style type="text/css">
	.st0{fill:#FFFFFF;}
	.st1{fill:none;stroke:#040000;stroke-width:1.8;stroke-miterlimit:10;}
	.st2{fill:none;stroke:#000000;stroke-width:1.8;stroke-miterlimit:10;}
</style>
<path d="M18.4,3.8H5.6C4.3,3.8,3.2,5,3.2,6.4v12.2c0,1.5,1.1,2.7,2.4,2.7h12.8c1.3,0,2.4-1.2,2.4-2.7V6.4C20.8,5,19.7,3.8,18.4,3.8z
	 M5.6,5.2h12.8c0.6,0,1.1,0.5,1.1,1.2v0.7l-7.1,5.2c-0.2,0.2-0.6,0.2-0.8,0L4.5,7.1V6.4C4.5,5.8,5,5.2,5.6,5.2z M18.4,19.8H5.6
	c-0.6,0-1.1-0.5-1.1-1.2V8.9l6.4,4.7c0.3,0.2,0.7,0.4,1.1,0.4c0.4,0,0.8-0.1,1.1-0.4l6.4-4.7v9.8C19.5,19.3,19,19.8,18.4,19.8
	L18.4,19.8z"/>
<circle class="st0" cx="18.8" cy="5.8" r="4.6"/>
<g>
	<line class="st1" x1="16" y1="5.2" x2="23" y2="5.2"/>
	<line class="st2" x1="19.5" y1="1.8" x2="19.5" y2="8.6"/>
</g>
</svg>
